<svg xmlns="http://www.w3.org/2000/svg" viewBox="0 0 20 26"><path d="M8 1.1v3.3l-.4.4H0v1h4.3c.3 0 .5.1.7.4l.5.5.4.4.1.2V14l.6.5c.2 0 .2.1.4.4l.5.5.5.5c.3.4.4.5 1.2.5h.6c.2.1.2.2.2.9 0 .9 0 .9-.4 1-.4 0-.5.2-.6.5 0 .3-.1.4-.6.5-.2 0-.3.2-.4.5 0 .3-.2.3-.5.4l-.5.5c0 .3-.2.4-.4.5-.3 0-.4.1-.5.2-.1.3 0 .5.2.7.2 0 .4 0 .6-.2l.1-.3c0-.2.2-.3.5-.4.3-.1.4-.3.5-.6 0-.2.2-.3.4-.4.4 0 .5-.2.6-.5 0-.2.2-.3.3-.4.5-.2.6-.2.7-.6 0-.2.1-.3.2-.3l.3-.1.3-.2c.2-.2.2-.3.2-.8v-.5l-.2-.2-.5-.2-.2-.1-.1-.3c0-.3-.2-.4-.5-.6L9 15c-.2-.2-.2-.3-.6-.5-.3-.1-.4-.3-.3-.5 0-.2.2-.3.3-.4h4.2c.2.1.3.2.3.4V24.5l.1.1c.1.2.3.3.4.3.2.1.5 0 .6-.3v-5.9a2931.2 2931.2 0 0 1 0-11.5l.5-.5.5-.5.5-.4H20v-1h-2.8a50 50 0 0 1-4.8 0 .8.8 0 0 1-.4-.4V0H8zm0 0"/></svg>